<svg width="24" height="24" viewBox="0 0 24 24" fill="none" xmlns="http://www.w3.org/2000/svg">
<g clip-path="url(#clip0_254:328)">
<path d="M0.910113 1.92C0.700113 2.27 0.730113 2.75 0.820113 3.25C1.72011 8.3 4.16011 12.82 7.59011 16.26C11.0201 19.69 15.6701 22.26 20.5601 23C21.0601 23.08 21.5401 23.11 21.8901 22.91C22.0101 22.84 22.1701 22.71 22.2101 22.51L23.0101 18.91C23.0701 18.6 22.9601 18.28 22.7101 18.02C22.5901 17.9 19.8601 16.91 18.5701 16.29C18.0401 16.03 17.4201 16.18 17.1601 16.61L16.6601 17.47C16.4901 17.76 16.2001 17.98 15.8801 18.06C14.6201 18.38 10.7201 14.79 9.87011 13.94C9.00011 13.06 5.28011 9.06 5.60011 7.8C5.68011 7.47 5.90011 7.19 6.19011 7.02C6.94011 6.58 6.74011 6.7 7.04011 6.52C7.48011 6.26 7.63011 5.64 7.37011 5.11C6.82011 3.96 6.49011 2.88 6.12011 1.65C5.96011 1.11 5.44011 0.680003 4.92011 0.790003C4.92011 0.790003 4.86011 0.800003 1.30011 1.6C1.11011 1.64 0.980113 1.8 0.910113 1.92Z" stroke="#07D78D" stroke-width="1.5" stroke-miterlimit="10"/>
<path d="M11.8799 3.76C15.8099 3.76 18.9899 6.94 18.9899 10.87" stroke="#07D78D" stroke-width="1.5" stroke-miterlimit="10" stroke-linecap="round" stroke-linejoin="round"/>
<path d="M11.8799 0.75C17.4699 0.75 21.9999 5.28 21.9999 10.87" stroke="#07D78D" stroke-width="1.5" stroke-miterlimit="10" stroke-linecap="round" stroke-linejoin="round"/>
</g>
<defs>
<clipPath id="clip0_254:328">
<rect width="23.79" height="23.81" fill="white"/>
</clipPath>
</defs>
</svg>
