<svg width="26" height="26" viewBox="0 0 26 26" fill="none" xmlns="http://www.w3.org/2000/svg">
<path d="M18.4549 0H6.60634C2.97239 0 0 3.03575 0 6.74611V18.3133C0 22.0236 2.97239 25.0594 6.60634 25.0594H18.4549C22.0888 25.0594 25.0612 22.0236 25.0612 18.3133V6.74611C25.0594 3.03575 22.087 0 18.4549 0ZM22.8175 18.1474C22.8175 20.7154 20.7601 22.8175 18.2443 22.8175H6.81693C4.30111 22.8175 2.24373 20.7154 2.24373 18.1474V6.91383C2.24373 4.34584 4.30111 2.24373 6.81693 2.24373H18.2443C20.7601 2.24373 22.8175 4.34584 22.8175 6.91383V18.1474Z" fill="#4B4B4B"/>
<path d="M12.5287 6.0976C9.04947 6.0976 6.22803 8.97867 6.22803 12.5325C6.22803 16.0863 9.04947 18.9674 12.5287 18.9674C16.008 18.9674 18.8295 16.0863 18.8295 12.5325C18.8295 8.97867 16.008 6.0976 12.5287 6.0976ZM12.5287 16.6826C10.2831 16.6826 8.46431 14.8247 8.46431 12.5306C8.46431 10.2384 10.285 8.3786 12.5287 8.3786C14.7743 8.3786 16.5932 10.2366 16.5932 12.5306C16.5932 14.8247 14.7743 16.6826 12.5287 16.6826Z" fill="#4B4B4B"/>
<path d="M19.1687 4.29736C18.3822 4.29736 17.7468 4.94775 17.7468 5.75094C17.7468 6.55414 18.3841 7.20453 19.1687 7.20453C19.9532 7.20453 20.5906 6.55414 20.5906 5.75094C20.5906 4.94775 19.9532 4.29736 19.1687 4.29736Z" fill="#4B4B4B"/>
</svg>
