<svg width="24" height="24" viewBox="0 0 24 24" fill="none" xmlns="http://www.w3.org/2000/svg">
<path d="M2.856 0C1.128 0 0 1.224 0 2.832C0 4.41 1.098 5.658 2.79 5.658H2.826C4.584 5.658 5.682 4.41 5.682 2.826C5.646 1.218 4.584 0 2.856 0Z" fill="#4B4B4B"/>
<path d="M5.28596 7.698H0.605957V24H5.28596V7.698Z" fill="#4B4B4B"/>
<path d="M18.0661 7.53601C15.3841 7.53601 13.7101 9.13201 13.3981 10.254V7.69801H8.14209C8.20809 9.05401 8.14209 24 8.14209 24H13.3981V15.18C13.3981 14.688 13.3741 14.196 13.5121 13.848C13.8721 12.864 14.6521 11.85 16.0441 11.85C17.8681 11.85 18.6961 13.356 18.6961 15.564V24H24.0001V14.934C24.0001 9.88801 21.3901 7.53601 18.0661 7.53601Z" fill="#4B4B4B"/>
</svg>
