<svg width="193" height="28" viewBox="0 0 193 28" fill="none" xmlns="http://www.w3.org/2000/svg">
<path d="M3.50781 0H0V28H3.50781V0Z" fill="#52B584"/>
<path d="M11.7045 0H9.36005V28H11.7045V0Z" fill="#52B584"/>
<path d="M18.7201 0H17.5479V28H18.7201V0Z" fill="#52B584"/>
<path d="M25.7445 0H24.5723V28H25.7445V0Z" fill="white"/>
<path d="M32.7601 0H31.5879V28H32.7601V0Z" fill="white"/>
<path d="M51.4361 21.2956C50.5812 21.2956 49.8321 21.1374 49.1975 20.8123C48.5629 20.4871 48.0781 20.0213 47.7344 19.3973C47.3907 18.7821 47.2144 18.0527 47.2144 17.209V10.7847C47.2144 9.93218 47.3907 9.19395 47.7344 8.58755C48.0781 7.98114 48.5629 7.50657 49.1975 7.19018C49.8321 6.86501 50.5724 6.70682 51.4361 6.70682C52.291 6.70682 53.0402 6.8738 53.6571 7.19897C54.2829 7.53293 54.7588 7.99872 55.1026 8.61391C55.4375 9.22031 55.6138 9.94975 55.6138 10.7934H53.851C53.851 9.9937 53.6395 9.36972 53.2165 8.93908C52.7934 8.50845 52.1941 8.28874 51.4273 8.28874C50.6605 8.28874 50.0612 8.49966 49.6205 8.93029C49.1887 9.36093 48.9683 9.97612 48.9683 10.7759V17.2178C48.9683 18.0263 49.1887 18.6415 49.6205 19.0722C50.0524 19.5028 50.6605 19.7225 51.4273 19.7225C52.1941 19.7225 52.7934 19.5028 53.2165 19.0722C53.6395 18.6415 53.851 18.0176 53.851 17.2178H55.6049C55.6049 18.0527 55.4375 18.7734 55.0938 19.3885C54.7588 20.0037 54.2741 20.4783 53.6483 20.8123C53.0314 21.1374 52.291 21.2956 51.4361 21.2956Z" fill="white"/>
<path d="M61.2104 21.1011L64.9209 6.89896H67.283L70.967 21.1011H69.1867L68.2525 17.3221H63.9426L63.0084 21.1011H61.2104ZM64.2863 15.8456H67.8735L66.7806 11.469C66.5691 10.6428 66.4104 9.94855 66.2958 9.38609C66.1813 8.83242 66.1108 8.4633 66.0843 8.29632C66.0579 8.4633 65.9874 8.83242 65.8728 9.38609C65.7582 9.93976 65.5907 10.634 65.388 11.4514L64.2863 15.8456Z" fill="white"/>
<path d="M76.5637 21.1011V6.89896H80.9705C81.8166 6.89896 82.5569 7.07473 83.1915 7.41747C83.8261 7.76022 84.3196 8.2348 84.6722 8.84999C85.0247 9.45639 85.201 10.177 85.201 10.9944C85.201 11.9523 84.9542 12.7784 84.4518 13.4639C83.9494 14.1494 83.2708 14.624 82.4159 14.8877L85.4037 21.1187H83.3325L80.6003 15.0898H78.3176V21.1187H76.5637V21.1011ZM78.3176 13.4991H80.9705C81.702 13.4991 82.2837 13.2706 82.7244 12.8048C83.165 12.3478 83.3854 11.7414 83.3854 10.9856C83.3854 10.221 83.165 9.61459 82.7244 9.15759C82.2837 8.70059 81.6932 8.47209 80.9705 8.47209H78.3176V13.4991Z" fill="white"/>
<path d="M94.9224 21.2944C94.1292 21.2944 93.4417 21.1362 92.8512 20.8111C92.2695 20.4859 91.8112 20.0289 91.4851 19.4488C91.159 18.8688 91.0003 18.1833 91.0003 17.4011V10.5901C91.0003 9.79913 91.159 9.11363 91.4851 8.52481C91.8112 7.93598 92.2695 7.48777 92.8512 7.17138C93.4329 6.855 94.1292 6.69681 94.9224 6.69681C95.7332 6.69681 96.4295 6.86379 97.0288 7.20654C97.6281 7.5405 98.0865 8.01508 98.4126 8.63027C98.7387 9.23667 98.8973 9.95732 98.8973 10.7922H97.919C97.919 9.79034 97.6458 9.00817 97.1082 8.43692C96.5705 7.86567 95.839 7.58444 94.9136 7.58444C94.0058 7.58444 93.2831 7.85688 92.7542 8.39298C92.2254 8.92907 91.961 9.6673 91.961 10.5989V17.4099C91.961 18.3415 92.2254 19.0797 92.7542 19.6158C93.2831 20.1519 93.997 20.4244 94.9136 20.4244C95.8478 20.4244 96.5882 20.1343 97.117 19.5543C97.6458 18.9743 97.919 18.1921 97.919 17.2078H98.8973C98.8973 18.0427 98.7387 18.7546 98.4126 19.3698C98.0865 19.9762 97.6281 20.4507 97.0288 20.7935C96.4295 21.1274 95.7244 21.2944 94.9224 21.2944Z" fill="white"/>
<path d="M104.503 21.1011V6.89896H105.481V13.2794H110.945V6.89896H111.924V21.1011H110.945V14.1758H105.481V21.1011H104.503Z" fill="white"/>
<path d="M117.512 21.1011L121.434 6.89896H122.641L126.563 21.1011H125.55L124.457 17.0145H119.574L118.481 21.1011H117.512ZM119.812 16.1444H124.219L122.676 10.4055C122.491 9.70247 122.35 9.12243 122.236 8.64786C122.121 8.17328 122.059 7.86569 122.033 7.72507C122.007 7.86569 121.936 8.17328 121.821 8.64786C121.707 9.12243 121.557 9.71126 121.372 10.4055L119.812 16.1444Z" fill="white"/>
<path d="M132.169 21.1011V6.89896H136.17C137.016 6.89896 137.748 7.05715 138.356 7.37353C138.964 7.68992 139.44 8.14692 139.775 8.73574C140.11 9.32457 140.268 10.0189 140.268 10.8274C140.268 11.8556 139.977 12.7081 139.396 13.3936C138.814 14.0791 138.03 14.501 137.025 14.6416L140.365 21.1011H139.193L135.976 14.6767H133.147V21.1011H132.169ZM133.138 13.8067H136.161C137.113 13.8067 137.871 13.5342 138.435 12.9806C138.999 12.4269 139.281 11.6974 139.281 10.7922C139.281 9.86945 138.999 9.14001 138.435 8.60392C137.871 8.06782 137.113 7.79538 136.161 7.79538H133.138V13.8067Z" fill="white"/>
<path d="M149.884 21.2944C149.091 21.2944 148.403 21.1362 147.813 20.8111C147.231 20.4859 146.773 20.0289 146.447 19.4488C146.121 18.8688 145.962 18.1833 145.962 17.4011V10.5901C145.962 9.79913 146.121 9.11363 146.447 8.52481C146.773 7.94477 147.231 7.48777 147.813 7.17138C148.394 6.855 149.091 6.69681 149.884 6.69681C150.695 6.69681 151.391 6.86379 151.99 7.20654C152.59 7.5405 153.048 8.01508 153.374 8.63027C153.7 9.23667 153.859 9.95732 153.859 10.7922H152.881C152.881 9.79034 152.607 9.00817 152.07 8.43692C151.532 7.86567 150.801 7.58444 149.875 7.58444C148.967 7.58444 148.245 7.85688 147.716 8.39298C147.187 8.92907 146.923 9.6673 146.923 10.5989V17.4099C146.923 18.3415 147.187 19.0797 147.716 19.6158C148.245 20.1519 148.959 20.4244 149.875 20.4244C150.809 20.4244 151.55 20.1343 152.079 19.5543C152.607 18.9743 152.881 18.1921 152.881 17.2078V15.0634H149.505V14.167H153.859V17.199C153.859 18.0339 153.7 18.7458 153.374 19.361C153.048 19.9674 152.59 20.4419 151.99 20.7847C151.391 21.1274 150.686 21.2944 149.884 21.2944Z" fill="white"/>
<path d="M159.455 21.1099V20.2135H162.496V7.78659H159.455V6.89017H166.48V7.78659H163.474V20.2222H166.48V21.1187H159.455V21.1099Z" fill="white"/>
<path d="M172.085 21.1011V6.89896H173.416L178.643 20.0377C178.634 19.774 178.616 19.4928 178.607 19.1852C178.599 18.8776 178.581 18.5876 178.581 18.3327C178.572 18.0779 178.572 17.9021 178.572 17.8054V6.89896H179.506V21.1011H178.158L172.984 7.96236C172.993 8.07661 173.002 8.25238 173.002 8.48088C173.002 8.70938 173.002 8.96424 173.011 9.26305C173.02 9.55307 173.02 9.86945 173.02 10.2034V21.1011H172.085Z" fill="white"/>
<path d="M189.016 21.2944C188.223 21.2944 187.536 21.1362 186.945 20.8111C186.363 20.4859 185.905 20.0289 185.579 19.4488C185.253 18.8688 185.094 18.1833 185.094 17.4011V10.5901C185.094 9.79913 185.253 9.11363 185.579 8.52481C185.905 7.94477 186.363 7.48777 186.945 7.17138C187.527 6.855 188.223 6.69681 189.016 6.69681C189.827 6.69681 190.523 6.86379 191.123 7.20654C191.722 7.5405 192.18 8.01508 192.506 8.63027C192.833 9.23667 192.991 9.95732 192.991 10.7922H192.013C192.013 9.79034 191.74 9.00817 191.202 8.43692C190.664 7.86567 189.933 7.58444 189.007 7.58444C188.1 7.58444 187.377 7.85688 186.848 8.39298C186.319 8.92907 186.055 9.6673 186.055 10.5989V17.4099C186.055 18.3415 186.319 19.0797 186.848 19.6158C187.377 20.1519 188.091 20.4244 189.007 20.4244C189.942 20.4244 190.682 20.1343 191.211 19.5543C191.74 18.9743 192.013 18.1921 192.013 17.2078V15.0634H188.637V14.167H192.991V17.199C192.991 18.0339 192.833 18.7458 192.506 19.361C192.18 19.9674 191.722 20.4419 191.123 20.7847C190.523 21.1274 189.827 21.2944 189.016 21.2944Z" fill="white"/>
</svg>
